# xmcd CD database file
#
# Track frame offsets:
#	150
#	69823
#	138510
#	199992
#
# Disc length: 2875 seconds
#
# Revision: 0
# Processed by: cddbd v1.5.2PL0 Copyright (c) Steve Scherf et al.
# Submitted via: CDex 1.78
#
DISCID=350b3904
DTITLE=Unknown Sailor - Odysee
DYEAR=1900
DGENRE=New Age
TTITLE0=Journey
TTITLE1=Complications
TTITLE2=Fish and Butter
TTITLE3=The Return
EXTD=
EXTT0=
EXTT1=
EXTT2=
EXTT3=
PLAYORDER=
